#!OML:ASF F:\VICON\USERDATA\INSTALL\rory3\rory3.ASF
:FULLY-SPECIFIED
:DEGREES
185
root 0.5730874593212536 17.795196042474576 40.86519050339589 2.1896307770333205 1.521047622925924 0.013153193214628489
lfemur -15.643403455190075 0.4967090227308112 -21.124821436210436
ltibia 48.92721683951783
lfoot 4.312672833718582 -10.15392318894324
ltoes -10.846501256376165
rfemur -15.854435112329854 3.6806293173535574 28.781718523180032
rtibia 55.986558972971636
rfoot -2.9833724451715185 -6.869430767403806
rtoes -4.385273255668037
lowerback 13.1240314442197 0.4789638903151974 1.910450493701775
upperback -0.535886817703812 2.024431808912455 1.4765145934113075
thorax -8.171025236737176 1.3120404340486864 0.8214944540558431
lowerneck -18.597314980302958 -4.2380902646043825 -2.2346756783459334
upperneck 13.591965211327647 -5.700477565730807 3.024958154602388
head 7.414416860551951 -2.5111019168234305 0.6931032216688152
lclavicle 3.0724827264545893e-16 -4.3067221206564905e-16
lhumerus -47.24275056050322 -13.655957784226706 98.35638572460635
lradius 109.68642634088056
lwrist 32.25850477504285
lhand -25.605830519481472 3.2449802226080107
lfingers 7.125020000000001
lthumb 0.5636667685885014 32.979735548484626
rclavicle 3.0728743657241976e-16 -4.3064985682852227e-16
rhumerus -43.6239736958513 8.140544694970538 -95.5544368104794
rradius 103.36203202090468
rwrist -19.36791124899208
rhand -18.517720409926785 37.46978174923403
rfingers 7.125020000000001
rthumb 7.846785713991374 7.571991778346059
186
root 0.5443237193425712 17.71543501552292 37.82888322678459 1.8942737366697866 1.013040801908762 -0.2982717647242461
lfemur -16.669602991026764 0.14628071986463775 -21.801969435348546
ltibia 47.30259117449017
lfoot 4.702734255915295 -11.501825094580413
ltoes -9.994362512362883
rfemur -16.449212971360968 3.558521591805278 28.522915035787864
rtibia 56.42626116006391
rfoot -1.6182588691491948 -6.714716177176147
rtoes -4.3372961884775885
lowerback 13.12982945224287 0.5001928161580516 1.8150712999799077
upperback -0.55580243556724 2.0176625954554557 1.4376561084208699
thorax -8.225723841691966 1.2978773509858916 0.8336646357214617
lowerneck -18.60266507847103 -4.184775840369597 -2.235320574667432
upperneck 13.619763120999316 -5.694852602361804 3.0213007811594434
head 7.407337741297607 -2.5113059354883447 0.7040289023969752
lclavicle 3.0724827264545893e-16 -4.3067221206564905e-16
lhumerus -46.964837351094474 -13.78566012149485 98.40253416639467
lradius 109.50888516889974
lwrist 32.35767856230906
lhand -25.65196814110289 3.1742561389886714
lfingers 7.125020000000001
lthumb 0.6135644548593835 33.0042412858111
rclavicle 3.0728743657241976e-16 -4.3064985682852227e-16
rhumerus -43.46942426104019 8.207936313194226 -95.58745920767007
rradius 103.43472343935716
rwrist -19.385480795079257
rhand -18.533222543410695 37.43763796449871
rfingers 7.125020000000001
rthumb 7.798768819945466 7.532941041191154
187
root 0.5540923518900274 17.750308179770926 39.531506319934685 2.012626002865022 1.2488191496199526 -0.045259181196983134
lfemur -17.87806857417336 -0.20035181898341292 -22.52110559914058
ltibia 45.58716789362495
lfoot 3.771820674141673 -11.737592709939214
ltoes -9.145872129248241
rfemur -15.583508463556358 3.618774202006044 29.01387721588712
rtibia 57.10355112450811
rfoot -1.5207163471569882 -6.741728439314237
rtoes -3.996475082114369
lowerback 13.157405665978336 0.547649772003343 1.7506757076736292
upperback -0.605153715907295 1.9749887828199326 1.3659581050040879
thorax -8.231852904365612 1.2913042576129214 0.8576270184905421
lowerneck -18.65789062047429 -4.187183394850497 -2.2721442026880094
upperneck 13.657827306923425 -5.731190048321873 2.9845952454229274
head 7.409283370675209 -2.506231804221344 0.7138597449968442
lclavicle 3.0724827264545893e-16 -4.3067221206564905e-16
lhumerus -46.498475170785106 -13.69263566408304 98.34577709264374
lradius 109.14508756201462
lwrist 32.44786795885167
lhand -25.67656440193643 3.150401245532955
lfingers 7.125020000000001
lthumb 0.6562095325622932 32.99339945234088
rclavicle 3.0728743657241976e-16 -4.3064985682852227e-16
rhumerus -43.482788450390856 8.26979679289576 -95.62881467945344
rradius 103.67750594864142
rwrist -19.411822466163006
rhand -18.552442567317904 37.42675477629581
rfingers 7.125020000000001
rthumb 7.8308656214615295 7.569680240188639
188
root 0.5313409920140251 17.688723703202694 37.478532034934716 1.787933160534562 1.0362981880581112 -0.2575579458689494
lfemur -17.51307704264677 -0.340483328741931 -22.736297879294597
ltibia 43.605105902969505
lfoot 4.10520827940668 -11.576860988282666
ltoes -8.283982481988573
rfemur -14.159063058389519 3.8112513489527737 29.024580341077428
rtibia 57.64357534814115
rfoot -2.4892542508647737 -7.034212362765843
rtoes -3.70721396103694
lowerback 13.044093701673996 0.47689133362180186 1.5062897747120492
upperback -0.6281044228513143 1.8796395807383441 1.30293715538931
thorax -8.270652480159642 1.211940334881732 0.730208660565754
lowerneck -18.590123607670147 -4.120042685311994 -2.2626143110439974
upperneck 13.721562100587894 -5.72243911801158 2.9725289123618692
head 7.40740931181873 -2.502550328520004 0.7190275335222629
lclavicle 3.0724827264545893e-16 -4.3067221206564905e-16
lhumerus -46.98939086553521 -13.890384420154735 98.21975590922901
lradius 109.00982452758373
lwrist 32.41389209197919
lhand -25.735773987950406 3.172447037216924
lfingers 7.125020000000001
lthumb 0.7398321929747903 33.06991042337231
rclavicle 3.0728743657241976e-16 -4.3064985682852227e-16
rhumerus -43.60703350896412 8.30258456888318 -95.68273164181656
rradius 103.8311729306607
rwrist -19.402864792397946
rhand -18.53071069329715 37.42915805338225
rfingers 7.125020000000001
rthumb 7.806155583991609 7.518444108306421
